<svg width="143" height="46" viewBox="0 0 143 46" fill="none" xmlns="http://www.w3.org/2000/svg">
<path d="M20.9945 32.3964V37.5749H4.19736C3.55744 37.5749 3.03906 37.0619 3.03906 36.4285V7.82178H9.06651V32.3964H20.9945Z" fill="white"/>
<path d="M30.4863 17.4587H24.584V37.5749H30.4863V17.4587Z" fill="white"/>
<path d="M56.7131 24.3551V37.5748H50.8715V26.9842C50.8715 24.5391 48.8677 22.5576 46.3974 22.5576C45.1622 22.5576 44.0451 23.053 43.2353 23.8544C42.4256 24.6559 41.9251 25.7617 41.9251 26.9842V37.5748H36.2051V17.4587H41.8643L41.85 21.7208C41.85 19.2332 45.4 17.0376 47.9114 17.0376H49.3182C53.4026 17.0376 56.7131 20.3142 56.7131 24.3551Z" fill="white"/>
<path d="M115.827 23.2778V37.575H110.304V24.3058C110.304 22.6321 108.927 21.2768 107.235 21.2874C106.082 21.2945 105.04 21.7616 104.287 22.5118C103.533 23.2637 103.068 24.2987 103.068 25.4398V37.575H97.5447V24.3058C97.5447 22.6321 96.1683 21.2768 94.4755 21.2874C93.3226 21.2945 92.2751 21.7616 91.5154 22.5118C90.7557 23.2637 90.2838 24.2987 90.2838 25.4398L90.2427 37.575H84.6979V17.7702C84.6979 16.4185 83.048 15.7427 82.0828 16.6981L72.3981 26.282L82.6673 37.575H75.4565L68.0634 28.9924V37.575H62.1289V6.72314H68.0634V23.0001L78.2218 12.9455C82.6887 8.52245 90.3285 11.6699 90.3088 17.9241L90.2963 21.8961C90.2963 19.0016 92.6791 16.6609 95.6016 16.6609H96.381C99.0015 16.6609 101.27 18.1541 102.367 20.3268C103.297 18.3611 105.438 16.6609 108.361 16.6609H109.14C112.833 16.6609 115.827 19.6244 115.827 23.2778Z" fill="white"/>
<path d="M139.962 28.6616V26.8269C139.962 24.0191 138.813 21.4785 136.954 19.6385C135.096 17.7985 132.528 16.6609 129.691 16.6609C124.019 16.6609 119.422 21.2114 119.422 26.8269V28.2423C119.422 33.8472 124.012 38.3923 129.677 38.3923H131.135C133.145 38.3923 135.35 37.5856 137.056 36.2834C138.761 34.9813 139.962 33.1802 139.962 31.1916H134.664C134.664 32.8547 133.302 34.2028 131.622 34.2028H130.063C127.394 34.2028 125.233 32.062 125.233 29.4223V28.6616H139.962ZM129.827 20.6204H130.131C131.391 20.6204 132.531 21.1264 133.357 21.9438C134.183 22.7612 134.694 23.8917 134.694 25.139H125.263C125.263 22.6427 127.307 20.6204 129.827 20.6204Z" fill="white"/>
<path d="M31.2162 10.435C31.2162 12.3263 29.5682 13.8602 27.534 13.8602C25.5016 13.8602 23.8535 12.3263 23.8535 10.435C23.8535 8.54369 25.5016 7.00977 27.534 7.00977C29.5682 7.00977 31.2162 8.54369 31.2162 10.435Z" fill="white"/>
</svg>